<?xml version="1.0" encoding="UTF-8" standalone="no"?>
<!-- Created with Inkscape (http://www.inkscape.org/) -->

<svg
   width="117.20813mm"
   height="75.762947mm"
   viewBox="0 0 117.20813 75.762947"
   version="1.1"
   id="svg5"
   xml:space="preserve"
   sodipodi:docname="logo.svg"
   inkscape:version="1.2.1 (9c6d41e410, 2022-07-14)"
   xmlns:inkscape="http://www.inkscape.org/namespaces/inkscape"
   xmlns:sodipodi="http://sodipodi.sourceforge.net/DTD/sodipodi-0.dtd"
   xmlns:xlink="http://www.w3.org/1999/xlink"
   xmlns="http://www.w3.org/2000/svg"
   xmlns:svg="http://www.w3.org/2000/svg"><sodipodi:namedview
     id="namedview7"
     pagecolor="#505050"
     bordercolor="#eeeeee"
     borderopacity="1"
     inkscape:showpageshadow="0"
     inkscape:pageopacity="0"
     inkscape:pagecheckerboard="0"
     inkscape:deskcolor="#505050"
     inkscape:document-units="mm"
     showgrid="false"
     inkscape:zoom="0.52221046"
     inkscape:cx="68.937722"
     inkscape:cy="143.62026"
     inkscape:window-width="1920"
     inkscape:window-height="1009"
     inkscape:window-x="-8"
     inkscape:window-y="-8"
     inkscape:window-maximized="1"
     inkscape:current-layer="layer1" /><defs
     id="defs2"><linearGradient
       inkscape:collect="always"
       id="linearGradient8416"><stop
         style="stop-color:#a86634;stop-opacity:1;"
         offset="0"
         id="stop8412" /><stop
         style="stop-color:#cd5b63;stop-opacity:1;"
         offset="1"
         id="stop8414" /></linearGradient><linearGradient
       inkscape:collect="always"
       xlink:href="#linearGradient8416"
       id="linearGradient8422"
       x1="57.395096"
       y1="98.862083"
       x2="117.28114"
       y2="26.49297"
       gradientUnits="userSpaceOnUse" /></defs><g
     inkscape:label="Calque 1"
     inkscape:groupmode="layer"
     id="layer1"
     transform="translate(-29.450581,-30.88652)"><path
       style="fill:url(#linearGradient8422);fill-opacity:1;stroke-width:0.264583"
       d="m 78.039913,106.42882 c -7.414448,-0.54055 -19.031683,-2.95262 -19.934309,-4.13894 -0.805323,-1.05843 0.01265,-7.125634 3.273589,-24.281587 4.30045,-22.624828 5.124905,-26.617677 5.68234,-27.519626 1.150797,-1.862029 5.023382,-2.802601 13.780164,-3.346931 10.201648,-0.63414 21.707693,0.741831 23.125093,2.765457 0.54357,0.77606 0.50602,1.533197 -0.25405,5.121685 -0.92749,4.378986 -1.74182,5.15093 -4.709075,4.463949 -6.68019,-1.546598 -20.203226,-0.82456 -22.013119,1.175348 -0.288581,0.318879 -0.869518,2.556 -1.618617,6.233105 -0.64266,3.154635 -1.168474,5.776489 -1.168474,5.826342 0,0.04985 3.303984,0.127302 7.342187,0.172112 6.639333,0.07368 7.421073,0.129233 8.166223,0.580358 0.45322,0.274386 1.01876,0.828537 1.25677,1.231447 0.59026,0.999226 0.54964,2.837191 -0.0857,3.879221 -0.98662,1.618118 -1.2748,1.666491 -9.927749,1.666491 -6.022554,0 -7.853614,0.07623 -7.943612,0.330729 -0.367355,1.038778 -1.990428,11.510307 -1.862862,12.018569 0.255765,1.019037 1.178311,1.352107 5.039138,1.819267 4.09068,0.49498 11.885145,0.41898 16.473245,-0.16062 3.03793,-0.38377 3.37041,-0.21428 3.15457,1.60813 -0.0791,0.66764 -0.0446,1.37437 0.0767,1.57052 0.7505,1.21434 11.086635,-2.18113 17.044585,-5.599218 1.03406,-0.593246 2.11824,-1.211564 2.40928,-1.374039 4.20641,-2.348243 9.26529,-6.978489 11.91356,-10.904125 2.95545,-4.381 4.11846,-7.996412 4.11846,-12.802963 0,-6.326579 -2.18231,-11.242998 -7.17773,-16.170336 -6.2572,-6.171917 -14.94608,-10.111336 -26.581365,-12.051621 -4.1433,-0.69093 -16.393009,-0.694367 -20.693309,-0.0058 C 62.896476,40.782112 51.37747,46.837612 41.811015,56.99548 37.795573,61.259164 32.93659,68.498333 30.50518,73.839511 l -1.0546,2.316719 0.13456,-2.513542 c 0.41872,-7.821563 4.642299,-16.057142 12.063837,-23.523369 9.719701,-9.778225 23.599822,-16.345295 39.566006,-18.719774 4.979812,-0.740596 17.691952,-0.665412 22.886457,0.135358 11.34282,1.748575 20.0907,4.922798 27.91354,10.128597 5.05165,3.361676 10.13436,9.015418 12.38854,13.780365 1.42626,3.014874 2.08363,5.894295 2.22724,9.755865 0.19553,5.257538 -0.61538,8.86023 -3.04285,13.518762 -3.14493,6.035392 -9.28175,12.21908 -16.51721,16.643354 -2.98421,1.82476 -9.57538,5.031824 -12.67927,6.169364 -10.86318,3.9812 -24.226285,5.78162 -36.351447,4.89763 z"
       id="path7674"
       inkscape:export-filename="EI.svg"
       inkscape:export-xdpi="96"
       inkscape:export-ydpi="96" /></g></svg>
